<?xml version="1.0" encoding="utf-8"?>
<!-- Generator: Adobe Illustrator 23.0.2, SVG Export Plug-In . SVG Version: 6.00 Build 0)  -->
<svg version="1.1" id="Layer_1" xmlns="http://www.w3.org/2000/svg" xmlns:xlink="http://www.w3.org/1999/xlink" x="0px" y="0px"
	 viewBox="0 0 1431.5 634.7" style="enable-background:new 0 0 1431.5 634.7;" xml:space="preserve">
<style type="text/css">
	.st0{fill:#FFFFFF;}
</style>
<path class="st0" d="M1410,323.2c-1.5,0-2.5,0.5-3.5,1c-24,10-124.5,64.5-186.5,64.5c-21.5,0-32.5-9-32.5-40c0-8.5-22-21.5-24-21.5
	c-11.5,0-72.5,28.5-91,28.5c-3.5,0-5.5-2-5.5-4.5c0-10,21-32.5,88.5-32.5c4,0,5.5-0.5,5.5-1.5c0-2-8.5-5.5-14-5.5
	c-28.7,0-77.2,8.4-96.6,26.5c-62.8,33-173.3,92-220.4,92c-17,0-24.5-6-24.5-16.5c0-20,14-55,35-94c68.5-49,129.5-103,151-147
	c6-12.5,8.5-22,8.5-29.5c0-8-4-12.5-10.5-12.5c-50.3,0-135,110.2-177.1,195c-49,23.6-165.8,70.5-208.9,70.5
	c-27,0-34.5-9.5-34.5-22.5c0-10,9.5-22.5,11.5-33.5c0.5-3,2.5-4.5,2.5-7c0-4-4-6-8.5-6s-11.5,5-11.5,9c0,4-1.5,9-3,14
	c-21.5,14.5-66.5,26.5-82.5,26.5c-4,0-6-5.5-6-13.5c0-10.5,10.5-27,10.5-37c0-9-5-15.5-20-15.5c-16,0-39,10-46,13.5
	c-0.5,0.2-0.9,0.4-1.2,0.7c-32.1,17.2-83.5,33-138.3,49.3c9.5-17.5,15-35.5,15-52c0-29.5-21.5-51.5-79.5-51.5h-16l6.5-3.5
	C231,251.7,311,182.7,311,147.7c0-12-9-20-32.5-20c-28,0-78,31.5-123,91.5l-13.5,18l10-22.5c14-32,24.5-61,24.5-69.5
	c0-9.5-3-12.5-7.5-12.5c-7,0-18,7-28,14c-35.5,25-102,75.5-102,123.5c0,9,4,16.5,8,16.5c3,0,9-4.5,9-15.5c0-50.5,49.5-86.5,92-116.5
	l10.5-7.5l-5,13.5C116,261.7,72,320.7,20,422.7c-1,1-1,2.5-1,3.5c0,4,4.5,7,8.5,7c2,0,4-0.5,5-2c55-76.5,78-135.5,132-201.5
	c18.5-22.5,82-90,108-90c12,0,17,4.5,17,12c0,25.5-59.5,85-89.5,101c-22.5,12-37,19-59,26.5c-5,1.5-7,3.5-7,5.5c0,4,6,7.5,12,7.5
	c1.5,0,4-0.5,5-1c22-11,45-12.5,63.5-12.5c44,0,58,16.5,58,38.5c0,18.5-9,41-19,61C148,408.7,43,440.7,43,479.7c0,9,11,15.5,36,15.5
	c78,0,156-54.5,192-112c58.5-18,115.5-35.5,147.5-53c0.4-0.1,0.7-0.3,1-0.5c5-2.5,27.9-13.5,39-13.5c3.5,0,4.5,3.5,4.5,9
	c0,9-9.5,27.5-9.5,40c0,11.5,4.5,20.5,19.5,20.5c16,0,57-12.5,84.5-27c-1.5,3.5-2,7.5-2,11c0,17.5,7,31,37.5,31
	c53.1,0,159.7-41.5,215-66c-13.1,27.8-21,52.1-21,68c0,23.5,13.5,33,36,33c48.1,0,149.9-51,220-86.7c-0.7,2-1,4.1-1,6.2
	c0,7.5,10,14.5,23.5,14.5s77.5-33,96.5-33c3,0,3.5,3,3.5,5c0,40.5,24,51,57.5,51c65,0,163.5-51.5,186-62.5c2.5-1,3.5-3,3.5-4
	C1412.5,323.7,1411,323.2,1410,323.2z M990.5,139.2c2,0,3,1.5,3,4c0,5-2.5,13.5-8,25c-19,39.5-73,88.5-135.5,135
	C895,224.7,961.5,139.2,990.5,139.2z M99,485.7c-24.5,0-34-5-34-12c0-30.5,88.5-59,182-86.5C207.5,439.2,142,485.7,99,485.7z"/>
</svg>
